<svg xmlns="http://www.w3.org/2000/svg" xmlns:xlink="http://www.w3.org/1999/xlink" width="24" height="24" viewBox="0 0 24 24">
  <defs>
    <circle id="us-a" cx="12" cy="12" r="12"/>
  </defs>
  <g fill="none" fill-rule="evenodd">
    <mask id="us-b" fill="#fff">
      <use xlink:href="#us-a"/>
    </mask>
    <use fill="#D8D8D8" xlink:href="#us-a"/>
    <g mask="url(#us-b)">
      <g transform="translate(-1.348)">
        <polygon fill="#FFF" points="0 24.067 45.775 24.067 45.775 0 0 0"/>
        <polygon fill="#B22234" points="0 1.82 45.775 1.82 45.775 0 0 0"/>
        <polygon fill="#B22234" points="0 5.528 45.775 5.528 45.775 3.708 0 3.708"/>
        <polygon fill="#B22234" points="0 9.236 45.775 9.236 45.775 7.416 0 7.416"/>
        <polygon fill="#B22234" points="0 12.944 45.775 12.944 45.775 11.124 0 11.124"/>
        <polygon fill="#B22234" points="0 16.652 45.775 16.652 45.775 14.831 0 14.831"/>
        <polygon fill="#B22234" points="0 20.36 45.775 20.36 45.775 18.539 0 18.539"/>
        <polygon fill="#B22234" points="0 24.067 45.775 24.067 45.775 22.247 0 22.247"/>
        <polygon fill="#3C3B6E" points="0 12.944 18.337 12.944 18.337 0 0 0"/>
        <polygon fill="#FFF" points="1.753 1.429 1.146 1.888 1.378 1.146"/>
        <polygon fill="#FFF" points="1.723 1.146 1.955 1.888 1.348 1.429"/>
        <polygon fill="#FFF" points="4.787 1.429 4.18 1.888 4.412 1.146"/>
        <polygon fill="#FFF" points="4.757 1.146 4.989 1.888 4.382 1.429"/>
        <polygon fill="#FFF" points="7.82 1.429 7.213 1.888 7.445 1.146"/>
        <polygon fill="#FFF" points="7.791 1.146 8.022 1.888 7.416 1.429"/>
        <polygon fill="#FFF" points="10.854 1.429 10.247 1.888 10.479 1.146"/>
        <polygon fill="#FFF" points="10.824 1.146 11.056 1.888 10.449 1.429"/>
        <polygon fill="#FFF" points="13.888 1.429 13.281 1.888 13.513 1.146"/>
        <polygon fill="#FFF" points="13.858 1.146 14.09 1.888 13.483 1.429"/>
        <polygon fill="#FFF" points="16.921 1.429 16.315 1.888 16.546 1.146"/>
        <polygon fill="#FFF" points="16.892 1.146 17.124 1.888 16.517 1.429"/>
        <polygon fill="#FFF" points="3.236 2.71 2.629 3.169 2.861 2.427"/>
        <polygon fill="#FFF" points="3.274 2.427 3.506 3.169 2.899 2.71"/>
        <polygon fill="#FFF" points="6.27 2.71 5.663 3.169 5.895 2.427"/>
        <polygon fill="#FFF" points="6.308 2.427 6.539 3.169 5.933 2.71"/>
        <polygon fill="#FFF" points="9.303 2.71 8.697 3.169 8.928 2.427"/>
        <polygon fill="#FFF" points="9.341 2.427 9.573 3.169 8.966 2.71"/>
        <polygon fill="#FFF" points="12.337 2.71 11.73 3.169 11.962 2.427"/>
        <polygon fill="#FFF" points="12.375 2.427 12.607 3.169 12 2.71"/>
        <polygon fill="#FFF" points="15.371 2.71 14.764 3.169 14.996 2.427"/>
        <polygon fill="#FFF" points="15.409 2.427 15.64 3.169 15.034 2.71"/>
        <polygon fill="#FFF" points="1.753 3.991 1.146 4.449 1.378 3.708"/>
        <polygon fill="#FFF" points="1.723 3.708 1.955 4.449 1.348 3.991"/>
        <polygon fill="#FFF" points="4.787 3.991 4.18 4.449 4.412 3.708"/>
        <polygon fill="#FFF" points="4.757 3.708 4.989 4.449 4.382 3.991"/>
        <polygon fill="#FFF" points="7.82 3.991 7.213 4.449 7.445 3.708"/>
        <polygon fill="#FFF" points="7.791 3.708 8.022 4.449 7.416 3.991"/>
        <polygon fill="#FFF" points="10.854 3.991 10.247 4.449 10.479 3.708"/>
        <polygon fill="#FFF" points="10.824 3.708 11.056 4.449 10.449 3.991"/>
        <polygon fill="#FFF" points="13.888 3.991 13.281 4.449 13.513 3.708"/>
        <polygon fill="#FFF" points="13.858 3.708 14.09 4.449 13.483 3.991"/>
        <polygon fill="#FFF" points="16.921 3.991 16.315 4.449 16.546 3.708"/>
        <polygon fill="#FFF" points="16.892 3.708 17.124 4.449 16.517 3.991"/>
        <polygon fill="#FFF" points="3.236 5.339 2.629 5.798 2.861 5.056"/>
        <polygon fill="#FFF" points="3.274 5.056 3.506 5.798 2.899 5.339"/>
        <polygon fill="#FFF" points="6.27 5.339 5.663 5.798 5.895 5.056"/>
        <polygon fill="#FFF" points="6.308 5.056 6.539 5.798 5.933 5.339"/>
        <polygon fill="#FFF" points="9.303 5.339 8.697 5.798 8.928 5.056"/>
        <polygon fill="#FFF" points="9.341 5.056 9.573 5.798 8.966 5.339"/>
        <polygon fill="#FFF" points="12.337 5.339 11.73 5.798 11.962 5.056"/>
        <polygon fill="#FFF" points="12.375 5.056 12.607 5.798 12 5.339"/>
        <polygon fill="#FFF" points="15.371 5.339 14.764 5.798 14.996 5.056"/>
        <polygon fill="#FFF" points="15.409 5.056 15.64 5.798 15.034 5.339"/>
        <polygon fill="#FFF" points="1.753 6.62 1.146 7.079 1.378 6.337"/>
        <polygon fill="#FFF" points="1.723 6.337 1.955 7.079 1.348 6.62"/>
        <polygon fill="#FFF" points="4.787 6.62 4.18 7.079 4.412 6.337"/>
        <polygon fill="#FFF" points="4.757 6.337 4.989 7.079 4.382 6.62"/>
        <polygon fill="#FFF" points="7.82 6.62 7.213 7.079 7.445 6.337"/>
        <polygon fill="#FFF" points="7.791 6.337 8.022 7.079 7.416 6.62"/>
        <polygon fill="#FFF" points="10.854 6.62 10.247 7.079 10.479 6.337"/>
        <polygon fill="#FFF" points="10.824 6.337 11.056 7.079 10.449 6.62"/>
        <polygon fill="#FFF" points="13.888 6.62 13.281 7.079 13.513 6.337"/>
        <polygon fill="#FFF" points="13.858 6.337 14.09 7.079 13.483 6.62"/>
        <polygon fill="#FFF" points="16.921 6.62 16.315 7.079 16.546 6.337"/>
        <polygon fill="#FFF" points="16.892 6.337 17.124 7.079 16.517 6.62"/>
        <polygon fill="#FFF" points="3.236 7.901 2.629 8.36 2.861 7.618"/>
        <polygon fill="#FFF" points="3.274 7.618 3.506 8.36 2.899 7.901"/>
        <polygon fill="#FFF" points="6.27 7.901 5.663 8.36 5.895 7.618"/>
        <polygon fill="#FFF" points="6.308 7.618 6.539 8.36 5.933 7.901"/>
        <polygon fill="#FFF" points="9.303 7.901 8.697 8.36 8.928 7.618"/>
        <polygon fill="#FFF" points="9.341 7.618 9.573 8.36 8.966 7.901"/>
        <polygon fill="#FFF" points="12.337 7.901 11.73 8.36 11.962 7.618"/>
        <polygon fill="#FFF" points="12.375 7.618 12.607 8.36 12 7.901"/>
        <polygon fill="#FFF" points="15.371 7.901 14.764 8.36 14.996 7.618"/>
        <polygon fill="#FFF" points="15.409 7.618 15.64 8.36 15.034 7.901"/>
        <polygon fill="#FFF" points="1.753 9.25 1.146 9.708 1.378 8.966"/>
        <polygon fill="#FFF" points="1.723 8.966 1.955 9.708 1.348 9.25"/>
        <polygon fill="#FFF" points="4.787 9.25 4.18 9.708 4.412 8.966"/>
        <polygon fill="#FFF" points="4.757 8.966 4.989 9.708 4.382 9.25"/>
        <polygon fill="#FFF" points="7.82 9.25 7.213 9.708 7.445 8.966"/>
        <polygon fill="#FFF" points="7.791 8.966 8.022 9.708 7.416 9.25"/>
        <polygon fill="#FFF" points="10.854 9.25 10.247 9.708 10.479 8.966"/>
        <polygon fill="#FFF" points="10.824 8.966 11.056 9.708 10.449 9.25"/>
        <polygon fill="#FFF" points="13.888 9.25 13.281 9.708 13.513 8.966"/>
        <polygon fill="#FFF" points="13.858 8.966 14.09 9.708 13.483 9.25"/>
        <polygon fill="#FFF" points="16.921 9.25 16.315 9.708 16.546 8.966"/>
        <polygon fill="#FFF" points="16.892 8.966 17.124 9.708 16.517 9.25"/>
        <polygon fill="#FFF" points="3.236 10.53 2.629 10.989 2.861 10.247"/>
        <polygon fill="#FFF" points="3.274 10.247 3.506 10.989 2.899 10.53"/>
        <polygon fill="#FFF" points="6.27 10.53 5.663 10.989 5.895 10.247"/>
        <polygon fill="#FFF" points="6.308 10.247 6.539 10.989 5.933 10.53"/>
        <polygon fill="#FFF" points="9.303 10.53 8.697 10.989 8.928 10.247"/>
        <polygon fill="#FFF" points="9.341 10.247 9.573 10.989 8.966 10.53"/>
        <polygon fill="#FFF" points="12.337 10.53 11.73 10.989 11.962 10.247"/>
        <polygon fill="#FFF" points="12.375 10.247 12.607 10.989 12 10.53"/>
        <polygon fill="#FFF" points="15.371 10.53 14.764 10.989 14.996 10.247"/>
        <polygon fill="#FFF" points="15.409 10.247 15.64 10.989 15.034 10.53"/>
        <polygon fill="#FFF" points="1.753 11.811 1.146 12.27 1.378 11.528"/>
        <polygon fill="#FFF" points="1.723 11.528 1.955 12.27 1.348 11.811"/>
        <polygon fill="#FFF" points="4.787 11.811 4.18 12.27 4.412 11.528"/>
        <polygon fill="#FFF" points="4.757 11.528 4.989 12.27 4.382 11.811"/>
        <polygon fill="#FFF" points="7.82 11.811 7.213 12.27 7.445 11.528"/>
        <polygon fill="#FFF" points="7.791 11.528 8.022 12.27 7.416 11.811"/>
        <polygon fill="#FFF" points="10.854 11.811 10.247 12.27 10.479 11.528"/>
        <polygon fill="#FFF" points="10.824 11.528 11.056 12.27 10.449 11.811"/>
        <polygon fill="#FFF" points="13.888 11.811 13.281 12.27 13.513 11.528"/>
        <polygon fill="#FFF" points="13.858 11.528 14.09 12.27 13.483 11.811"/>
        <polygon fill="#FFF" points="16.921 11.811 16.315 12.27 16.546 11.528"/>
        <polygon fill="#FFF" points="16.892 11.528 17.124 12.27 16.517 11.811"/>
      </g>
    </g>
  </g>
</svg>
