<svg xmlns="http://www.w3.org/2000/svg" xmlns:xlink="http://www.w3.org/1999/xlink" width="26" height="26" viewBox="0 0 26 26">
  <defs>
    <circle id="han-a" cx="12" cy="12" r="12"/>
  </defs>
  <g fill="none" fill-rule="evenodd" transform="translate(1 1)">
    <mask id="han-b" fill="#fff">
      <use xlink:href="#han-a"/>
    </mask>
    <use fill="#D8D8D8" xlink:href="#han-a"/>
    <circle cx="12" cy="12" r="12.25" stroke="#000" stroke-opacity=".053" stroke-width=".5"/>
    <g mask="url(#han-b)">
      <g transform="translate(-55.172 -33.204)">
        <polygon fill="#FFF" points="0 89.102 134.093 89.102 134.093 0 0 0"/>
        <polygon fill="#000" points="43.057 35.622 49.472 26.01 55.887 30.282 49.472 39.894"/>
        <polygon fill="#FFF" points="46.572 39.015 54.033 27.943 54.832 28.471 47.372 39.542"/>
        <polygon fill="#000" points="78.382 59.172 84.797 49.56 91.211 53.832 84.797 63.444"/>
        <polygon fill="#FFF" points="79.436 60.808 86.897 49.736 87.696 50.263 80.236 61.335"/>
        <path fill="#C60C30" d="M73.7434274,35.1500078 C79.0729925,38.6761291 80.5131494,45.8223549 76.9601035,51.1115445 C73.4070652,56.4007341 66.206288,57.8299808 60.8767229,54.3038519 C55.5471578,50.7777306 54.1070008,43.6315047 57.6600468,38.3423151 C61.2130851,33.0531255 68.4138622,31.6238788 73.7434274,35.1500078 Z"/>
        <path fill="#003478" d="M57.6530376,38.1365178 C55.8828994,40.7855499 56.6003922,44.3646632 59.255588,46.1306923 C61.9107915,47.8967137 65.4982326,47.1808941 67.2683632,44.5318543 C69.0384937,41.8828222 72.6259348,41.1669949 75.2811383,42.9330163 C77.9363341,44.6990454 78.6538269,48.2781588 76.8836887,50.9271909 C73.3434276,56.2252628 66.1685454,57.6569097 60.8581461,54.1248592 C55.5477468,50.5928164 54.1127689,43.4345897 57.6530376,38.1365178"/>
        <polygon fill="#000" points="49.472 63.444 43.057 53.832 49.472 49.56 55.887 59.172"/>
        <polygon fill="#FFF" points="54.033 61.335 46.572 50.263 47.372 49.736 54.832 60.808"/>
        <polygon fill="#000" points="84.797 39.894 78.382 30.282 84.797 26.01 91.211 35.622"/>
        <polygon fill="#FFF" points="86.897 39.542 79.436 28.471 80.236 27.943 87.696 39.015"/>
      </g>
    </g>
  </g>
</svg>
